<svg width="158" height="107" viewBox="0 0 158 107" fill="none" xmlns="http://www.w3.org/2000/svg">
<path d="M4.72329 7H3.89786L1.42921 4.23329V7H0.741357V1.543H1.42921V4.18743L3.83671 1.543H4.61629L2.247 4.19507L4.72329 7ZM9.01218 7H8.32433V2.14679H6.59704C6.55118 2.52383 6.50023 2.92126 6.44418 3.33907C6.38813 3.75179 6.33209 4.14667 6.27604 4.52371C6.21999 4.90076 6.16394 5.22176 6.1079 5.48671C6.04166 5.8281 5.96014 6.11852 5.86333 6.358C5.76652 6.59748 5.63659 6.77836 5.47354 6.90064C5.31559 7.02293 5.10668 7.08407 4.84683 7.08407C4.76021 7.08407 4.67104 7.07388 4.57933 7.0535C4.49271 7.03821 4.41628 7.01783 4.35004 6.99236V6.41914C4.40609 6.44462 4.46978 6.46755 4.54111 6.48793C4.61244 6.50321 4.68887 6.51086 4.7704 6.51086C4.92325 6.51086 5.04299 6.44971 5.12961 6.32743C5.22133 6.20005 5.29266 6.04464 5.34361 5.86121C5.39456 5.67269 5.43787 5.48671 5.47354 5.30329C5.5143 5.10967 5.56271 4.82688 5.61875 4.45493C5.6799 4.07788 5.74359 3.63969 5.80983 3.14036C5.88116 2.64102 5.95249 2.10857 6.02383 1.543H9.01218V7ZM13.5368 7L12.8795 5.31093H10.7166L10.067 7H9.37146L11.5038 1.52007H12.1229L14.2476 7H13.5368ZM12.0617 3.04864C12.0465 3.00788 12.021 2.934 11.9853 2.827C11.9496 2.72 11.914 2.61045 11.8783 2.49836C11.8477 2.38117 11.8223 2.292 11.8019 2.23086C11.7662 2.38881 11.7255 2.54421 11.6796 2.69707C11.6337 2.84483 11.5955 2.96202 11.565 3.04864L10.9459 4.6995H12.6732L12.0617 3.04864ZM16.9507 2.07036C16.3647 2.07036 15.9036 2.26652 15.5673 2.65886C15.231 3.05119 15.0629 3.58874 15.0629 4.2715C15.0629 4.94917 15.2183 5.48671 15.5291 5.88414C15.845 6.27648 16.3163 6.47264 16.943 6.47264C17.1825 6.47264 17.4092 6.45226 17.6232 6.4115C17.8372 6.37074 18.0461 6.31979 18.2499 6.25864V6.85479C18.0461 6.93121 17.8347 6.98726 17.6156 7.02293C17.4016 7.0586 17.1443 7.07643 16.8437 7.07643C16.2883 7.07643 15.8246 6.96179 15.4527 6.7325C15.0807 6.50321 14.8005 6.17712 14.6119 5.75421C14.4285 5.33131 14.3368 4.83452 14.3368 4.26386C14.3368 3.71357 14.4362 3.22952 14.6349 2.81171C14.8387 2.38881 15.1368 2.06017 15.5291 1.82579C15.9214 1.58631 16.3978 1.46657 16.9583 1.46657C17.5341 1.46657 18.0359 1.57357 18.4639 1.78757L18.1888 2.36843C18.0207 2.292 17.8321 2.22321 17.6232 2.16207C17.4194 2.10093 17.1952 2.07036 16.9507 2.07036ZM21.2483 2.07036C20.6623 2.07036 20.2012 2.26652 19.8649 2.65886C19.5286 3.05119 19.3605 3.58874 19.3605 4.2715C19.3605 4.94917 19.5159 5.48671 19.8267 5.88414C20.1426 6.27648 20.6139 6.47264 21.2406 6.47264C21.4801 6.47264 21.7069 6.45226 21.9209 6.4115C22.1349 6.37074 22.3438 6.31979 22.5476 6.25864V6.85479C22.3438 6.93121 22.1323 6.98726 21.9132 7.02293C21.6992 7.0586 21.4419 7.07643 21.1413 7.07643C20.5859 7.07643 20.1222 6.96179 19.7503 6.7325C19.3783 6.50321 19.0981 6.17712 18.9096 5.75421C18.7261 5.33131 18.6344 4.83452 18.6344 4.26386C18.6344 3.71357 18.7338 3.22952 18.9325 2.81171C19.1363 2.38881 19.4344 2.06017 19.8267 1.82579C20.219 1.58631 20.6954 1.46657 21.2559 1.46657C21.8317 1.46657 22.3336 1.57357 22.7616 1.78757L22.4864 2.36843C22.3183 2.292 22.1298 2.22321 21.9209 2.16207C21.717 2.10093 21.4929 2.07036 21.2483 2.07036ZM25.8347 2.07036C25.5799 2.07036 25.3481 2.10093 25.1392 2.16207C24.9303 2.21812 24.7418 2.28436 24.5736 2.36079L24.2909 1.78757C24.4998 1.68567 24.7392 1.60669 25.0093 1.55064C25.2793 1.49459 25.557 1.46657 25.8424 1.46657C26.4283 1.46657 26.9098 1.58376 27.2869 1.81814C27.669 2.05252 27.9543 2.37607 28.1429 2.78879C28.3314 3.1964 28.4256 3.66007 28.4256 4.17979C28.4256 4.77593 28.3288 5.29055 28.1352 5.72364C27.9416 6.15674 27.6486 6.49048 27.2563 6.72486C26.869 6.95924 26.3799 7.07643 25.7889 7.07643C25.4729 7.07643 25.2054 7.0586 24.9864 7.02293C24.7673 6.98726 24.5507 6.93121 24.3367 6.85479V6.25864C24.5507 6.31469 24.7673 6.36564 24.9864 6.4115C25.2054 6.45226 25.4373 6.47264 25.6819 6.47264C26.3391 6.47264 26.8334 6.2994 27.1646 5.95293C27.5009 5.60136 27.6792 5.09948 27.6996 4.44729H25.0475V3.8435H27.6919C27.641 3.28302 27.4499 2.84738 27.1187 2.53657C26.7926 2.22576 26.3646 2.07036 25.8347 2.07036ZM33.4303 7H32.7424V4.45493H29.9451V7H29.2573V1.543H29.9451V3.85114H32.7424V1.543H33.4303V7ZM37.5896 7H34.5401V1.543H37.5896V2.14679H35.228V3.85114H37.452V4.44729H35.228V6.39621H37.5896V7ZM39.8493 1.543C40.5627 1.543 41.0824 1.68312 41.4085 1.96336C41.7346 2.24359 41.8976 2.63848 41.8976 3.148C41.8976 3.44862 41.8288 3.7314 41.6912 3.99636C41.5588 4.25621 41.332 4.46767 41.011 4.63071C40.6951 4.79376 40.2646 4.87529 39.7194 4.87529H39.0927V7H38.4048V1.543H39.8493ZM39.7882 2.1315H39.0927V4.28679H39.643C40.1627 4.28679 40.5499 4.20271 40.8047 4.03457C41.0594 3.86643 41.1868 3.58109 41.1868 3.17857C41.1868 2.827 41.0747 2.56459 40.8505 2.39136C40.6263 2.21812 40.2722 2.1315 39.7882 2.1315ZM45.7303 1.543V2.15443H43.338V7H42.6502V1.543H45.7303ZM50.8883 4.26386C50.8883 4.82943 50.7915 5.32367 50.5979 5.74657C50.4093 6.16438 50.1291 6.49048 49.7572 6.72486C49.3852 6.95924 48.9241 7.07643 48.3738 7.07643C47.8082 7.07643 47.3369 6.95924 46.9599 6.72486C46.5879 6.49048 46.3102 6.16183 46.1268 5.73893C45.9434 5.31602 45.8517 4.82179 45.8517 4.25621C45.8517 3.69574 45.9434 3.20659 46.1268 2.78879C46.3102 2.37098 46.5879 2.04488 46.9599 1.8105C47.3369 1.57612 47.8108 1.45893 48.3814 1.45893C48.9266 1.45893 49.3852 1.57612 49.7572 1.8105C50.1291 2.03979 50.4093 2.36588 50.5979 2.78879C50.7915 3.20659 50.8883 3.69829 50.8883 4.26386ZM46.5777 4.26386C46.5777 4.95171 46.7229 5.49436 47.0134 5.89179C47.3038 6.28412 47.7573 6.48029 48.3738 6.48029C48.9954 6.48029 49.4489 6.28412 49.7342 5.89179C50.0196 5.49436 50.1622 4.95171 50.1622 4.26386C50.1622 3.576 50.0196 3.03845 49.7342 2.65121C49.4489 2.25888 48.998 2.06271 48.3814 2.06271C47.7649 2.06271 47.3089 2.25888 47.0134 2.65121C46.7229 3.03845 46.5777 3.576 46.5777 4.26386ZM52.6728 2.07036C52.418 2.07036 52.1862 2.10093 51.9773 2.16207C51.7684 2.21812 51.5799 2.28436 51.4117 2.36079L51.1289 1.78757C51.3378 1.68567 51.5773 1.60669 51.8474 1.55064C52.1174 1.49459 52.3951 1.46657 52.6804 1.46657C53.2664 1.46657 53.7479 1.58376 54.1249 1.81814C54.5071 2.05252 54.7924 2.37607 54.9809 2.78879C55.1694 3.1964 55.2637 3.66007 55.2637 4.17979C55.2637 4.77593 55.1669 5.29055 54.9733 5.72364C54.7797 6.15674 54.4867 6.49048 54.0944 6.72486C53.7071 6.95924 53.218 7.07643 52.6269 7.07643C52.311 7.07643 52.0435 7.0586 51.8244 7.02293C51.6053 6.98726 51.3888 6.93121 51.1748 6.85479V6.25864C51.3888 6.31469 51.6053 6.36564 51.8244 6.4115C52.0435 6.45226 52.2754 6.47264 52.5199 6.47264C53.1772 6.47264 53.6714 6.2994 54.0026 5.95293C54.3389 5.60136 54.5173 5.09948 54.5376 4.44729H51.8856V3.8435H54.53C54.479 3.28302 54.288 2.84738 53.9568 2.53657C53.6307 2.22576 53.2027 2.07036 52.6728 2.07036ZM58.7627 2.13914C59.3538 2.14933 59.82 2.24614 60.1613 2.42957C60.5027 2.613 60.7448 2.85757 60.8874 3.16329C61.0301 3.4639 61.1014 3.80019 61.1014 4.17214C61.1014 4.41671 61.0632 4.66129 60.9868 4.90586C60.9154 5.14533 60.7906 5.36443 60.6123 5.56314C60.4339 5.75676 60.1945 5.91471 59.8939 6.037C59.5932 6.15929 59.2162 6.22552 58.7627 6.23571V7.07643H58.0825V6.23571C57.6188 6.22552 57.2341 6.15929 56.9284 6.037C56.6278 5.90962 56.3909 5.74657 56.2176 5.54786C56.0444 5.34405 55.9221 5.1224 55.8508 4.88293C55.7794 4.64345 55.7438 4.40652 55.7438 4.17214C55.7438 3.81038 55.8151 3.47919 55.9578 3.17857C56.1055 2.87286 56.3501 2.62574 56.6915 2.43721C57.0329 2.24869 57.4965 2.14933 58.0825 2.13914V1.46657H58.7627V2.13914ZM58.0825 2.72C57.6749 2.73019 57.3488 2.79643 57.1042 2.91871C56.8647 3.041 56.694 3.20914 56.5921 3.42314C56.4902 3.63205 56.4393 3.87917 56.4393 4.1645C56.4393 4.61288 56.5692 4.9721 56.8291 5.24214C57.094 5.5071 57.5118 5.64976 58.0825 5.67014V2.72ZM58.7627 5.67014C59.3538 5.64976 59.7741 5.50455 60.0238 5.2345C60.2785 4.95936 60.4059 4.60269 60.4059 4.1645C60.4059 3.87407 60.355 3.6244 60.2531 3.4155C60.1512 3.2015 59.9805 3.0359 59.741 2.91871C59.5015 2.79643 59.1754 2.73019 58.7627 2.72V5.67014ZM64.5232 2.13914C65.1143 2.14933 65.5805 2.24614 65.9219 2.42957C66.2632 2.613 66.5053 2.85757 66.6479 3.16329C66.7906 3.4639 66.8619 3.80019 66.8619 4.17214C66.8619 4.41671 66.8237 4.66129 66.7473 4.90586C66.676 5.14533 66.5511 5.36443 66.3728 5.56314C66.1945 5.75676 65.955 5.91471 65.6544 6.037C65.3537 6.15929 64.9767 6.22552 64.5232 6.23571V7.07643H63.843V6.23571C63.3793 6.22552 62.9946 6.15929 62.6889 6.037C62.3883 5.90962 62.1514 5.74657 61.9781 5.54786C61.8049 5.34405 61.6826 5.1224 61.6113 4.88293C61.54 4.64345 61.5043 4.40652 61.5043 4.17214C61.5043 3.81038 61.5756 3.47919 61.7183 3.17857C61.866 2.87286 62.1106 2.62574 62.452 2.43721C62.7934 2.24869 63.257 2.14933 63.843 2.13914V1.46657H64.5232V2.13914ZM63.843 2.72C63.4354 2.73019 63.1093 2.79643 62.8647 2.91871C62.6252 3.041 62.4545 3.20914 62.3526 3.42314C62.2507 3.63205 62.1998 3.87917 62.1998 4.1645C62.1998 4.61288 62.3297 4.9721 62.5896 5.24214C62.8545 5.5071 63.2723 5.64976 63.843 5.67014V2.72ZM64.5232 5.67014C65.1143 5.64976 65.5346 5.50455 65.7843 5.2345C66.039 4.95936 66.1664 4.60269 66.1664 4.1645C66.1664 3.87407 66.1155 3.6244 66.0136 3.4155C65.9117 3.2015 65.741 3.0359 65.5015 2.91871C65.262 2.79643 64.9359 2.73019 64.5232 2.72V5.67014ZM70.6659 7H67.6164V1.543H70.6659V2.14679H68.3042V3.85114H70.5283V4.44729H68.3042V6.39621H70.6659V7ZM75.463 7H74.6376L72.1689 4.23329V7H71.4811V1.543H72.1689V4.18743L74.5764 1.543H75.356L72.9867 4.19507L75.463 7ZM77.5508 7H76.8629V2.14679H75.1586V1.543H79.2475V2.14679H77.5508V7ZM79.6958 1.543H80.3378V4.539C80.3378 4.70714 80.3353 4.89567 80.3302 5.10457C80.3251 5.31348 80.3175 5.50455 80.3073 5.67779C80.3022 5.85102 80.2945 5.9784 80.2843 6.05993H80.3149L83.3186 1.543H84.0828V7H83.4408V4.03457C83.4408 3.84605 83.4434 3.64479 83.4485 3.43079C83.4587 3.21679 83.4689 3.02062 83.4791 2.84229C83.4892 2.66395 83.4969 2.53657 83.502 2.46014H83.4714L80.4601 7H79.6958V1.543ZM86.7317 1.543C87.4144 1.543 87.9291 1.6449 88.2755 1.84871C88.6271 2.04743 88.8029 2.39645 88.8029 2.89579C88.8029 3.21679 88.7137 3.48429 88.5354 3.69829C88.3571 3.90719 88.0998 4.04221 87.7635 4.10336V4.14157C87.9928 4.17724 88.1991 4.24348 88.3825 4.34029C88.5711 4.43709 88.7188 4.57467 88.8258 4.753C88.9328 4.93133 88.9863 5.16317 88.9863 5.4485C88.9863 5.94274 88.8156 6.32488 88.4743 6.59493C88.138 6.86498 87.6768 7 87.0909 7H85.1725V1.543H86.7317ZM86.8693 3.86643C87.338 3.86643 87.659 3.79255 87.8323 3.64479C88.0055 3.49193 88.0921 3.26774 88.0921 2.97221C88.0921 2.67159 87.9851 2.45759 87.7711 2.33021C87.5622 2.19774 87.2259 2.1315 86.7623 2.1315H85.8604V3.86643H86.8693ZM85.8604 4.43964V6.41914H86.961C87.445 6.41914 87.7813 6.32488 87.9698 6.13636C88.1583 5.94783 88.2526 5.70071 88.2526 5.395C88.2526 5.10967 88.1533 4.88038 87.9545 4.70714C87.7609 4.52881 87.4119 4.43964 86.9075 4.43964H85.8604ZM93.9342 7H93.2464V4.45493H90.4491V7H89.7612V1.543H90.4491V3.85114H93.2464V1.543H93.9342V7ZM99.8056 4.26386C99.8056 4.82943 99.7088 5.32367 99.5151 5.74657C99.3266 6.16438 99.0464 6.49048 98.6744 6.72486C98.3025 6.95924 97.8414 7.07643 97.2911 7.07643C96.7255 7.07643 96.2542 6.95924 95.8771 6.72486C95.5052 6.49048 95.2275 6.16183 95.0441 5.73893C94.8606 5.31602 94.7689 4.82179 94.7689 4.25621C94.7689 3.69574 94.8606 3.20659 95.0441 2.78879C95.2275 2.37098 95.5052 2.04488 95.8771 1.8105C96.2542 1.57612 96.728 1.45893 97.2987 1.45893C97.8439 1.45893 98.3025 1.57612 98.6744 1.8105C99.0464 2.03979 99.3266 2.36588 99.5151 2.78879C99.7088 3.20659 99.8056 3.69829 99.8056 4.26386ZM95.495 4.26386C95.495 4.95171 95.6402 5.49436 95.9306 5.89179C96.2211 6.28412 96.6745 6.48029 97.2911 6.48029C97.9127 6.48029 98.3662 6.28412 98.6515 5.89179C98.9368 5.49436 99.0795 4.95171 99.0795 4.26386C99.0795 3.576 98.9368 3.03845 98.6515 2.65121C98.3662 2.25888 97.9152 2.06271 97.2987 2.06271C96.6822 2.06271 96.2262 2.25888 95.9306 2.65121C95.6402 3.03845 95.495 3.576 95.495 4.26386ZM102.972 2.07036C102.386 2.07036 101.925 2.26652 101.588 2.65886C101.252 3.05119 101.084 3.58874 101.084 4.2715C101.084 4.94917 101.239 5.48671 101.55 5.88414C101.866 6.27648 102.337 6.47264 102.964 6.47264C103.203 6.47264 103.43 6.45226 103.644 6.4115C103.858 6.37074 104.067 6.31979 104.271 6.25864V6.85479C104.067 6.93121 103.856 6.98726 103.637 7.02293C103.423 7.0586 103.165 7.07643 102.865 7.07643C102.309 7.07643 101.846 6.96179 101.474 6.7325C101.102 6.50321 100.821 6.17712 100.633 5.75421C100.449 5.33131 100.358 4.83452 100.358 4.26386C100.358 3.71357 100.457 3.22952 100.656 2.81171C100.86 2.38881 101.158 2.06017 101.55 1.82579C101.942 1.58631 102.419 1.46657 102.979 1.46657C103.555 1.46657 104.057 1.57357 104.485 1.78757L104.21 2.36843C104.042 2.292 103.853 2.22321 103.644 2.16207C103.44 2.10093 103.216 2.07036 102.972 2.07036ZM106.807 7H106.119V2.14679H104.415V1.543H108.504V2.14679H106.807V7ZM108.952 1.543H109.594V4.539C109.594 4.70714 109.592 4.89567 109.587 5.10457C109.581 5.31348 109.574 5.50455 109.564 5.67779C109.558 5.85102 109.551 5.9784 109.541 6.05993H109.571L112.575 1.543H113.339V7H112.697V4.03457C112.697 3.84605 112.7 3.64479 112.705 3.43079C112.715 3.21679 112.725 3.02062 112.735 2.84229C112.746 2.66395 112.753 2.53657 112.758 2.46014H112.728L109.716 7H108.952V1.543Z" fill="white"/>
<path d="M77.8049 44.5659L79.7997 50H79.2341L78.5921 48.2421H76.3299L75.6955 50H75.1299L77.1324 44.5659H77.8049ZM77.4686 45.1239H77.4534L76.498 47.7606H78.424L77.4686 45.1239Z" fill="white"/>
<path d="M70.407 43H0V51.7428H70.407V43Z" fill="url(#paint0_linear)"/>
<path d="M143.139 51.7428H157.991V43H143.139L139 47.4415L143.139 51.7428Z" fill="white"/>
<path d="M141 47.5L85 47.5" stroke="white" stroke-width="0.523829" stroke-miterlimit="10"/>
<path d="M149.805 44.5659L151.8 50H151.234L150.592 48.2421H148.33L147.696 50H147.13L149.132 44.5659H149.805ZM149.469 45.1239H149.453L148.498 47.7606H150.424L149.469 45.1239Z" fill="#0D0D0D"/>
<path d="M89.8126 64H87.6649V58.5659H89.6979C90.131 58.5659 90.4673 58.6373 90.7068 58.7799C91.0125 58.9379 91.1654 59.3073 91.1654 59.8881V60.041C91.1654 60.3365 91.1042 60.5785 90.9819 60.7671C90.8647 60.9505 90.7068 61.0753 90.5081 61.1416C90.7832 61.2027 91.0023 61.3352 91.1654 61.539C91.3284 61.7428 91.4099 62.0205 91.4099 62.3721V62.6243C91.4048 63.0676 91.2825 63.409 91.0431 63.6484C90.9412 63.7503 90.8163 63.8268 90.6686 63.8777C90.424 63.9592 90.1387 64 89.8126 64ZM88.1999 61.3861V63.5261H89.8126C90.0979 63.5261 90.3297 63.4803 90.5081 63.3886C90.7475 63.2561 90.8698 62.9988 90.8749 62.6166V62.3721C90.8749 61.9441 90.7501 61.6664 90.5004 61.539C90.3017 61.4371 90.0622 61.3861 89.782 61.3861H88.1999ZM89.6979 59.0398H88.1999V60.9276H89.7514C90.0011 60.9276 90.2024 60.8792 90.3552 60.7824C90.5386 60.6652 90.6304 60.418 90.6304 60.041V59.8881C90.6304 59.5162 90.5335 59.2793 90.3399 59.1774C90.1871 59.0856 89.9731 59.0398 89.6979 59.0398Z" fill="white"/>
<path d="M82.4772 57H0V65.7428H82.4772V57Z" fill="url(#paint1_linear)"/>
<path d="M143.139 65.7428H157.991V57H143.139L139 61.4415L143.139 65.7428Z" fill="white"/>
<path d="M141 61.5L98 61.5" stroke="white" stroke-width="0.523829" stroke-miterlimit="10"/>
<path d="M149.813 64H147.665V58.5659H149.698C150.131 58.5659 150.467 58.6373 150.707 58.7799C151.013 58.9379 151.165 59.3073 151.165 59.8881V60.041C151.165 60.3365 151.104 60.5785 150.982 60.7671C150.865 60.9505 150.707 61.0753 150.508 61.1416C150.783 61.2027 151.002 61.3352 151.165 61.539C151.328 61.7428 151.41 62.0205 151.41 62.3721V62.6243C151.405 63.0676 151.283 63.409 151.043 63.6484C150.941 63.7503 150.816 63.8268 150.669 63.8777C150.424 63.9592 150.139 64 149.813 64ZM148.2 61.3861V63.5261H149.813C150.098 63.5261 150.33 63.4803 150.508 63.3886C150.748 63.2561 150.87 62.9988 150.875 62.6166V62.3721C150.875 61.9441 150.75 61.6664 150.5 61.539C150.302 61.4371 150.062 61.3861 149.782 61.3861H148.2ZM149.698 59.0398H148.2V60.9276H149.751C150.001 60.9276 150.202 60.8792 150.355 60.7824C150.539 60.6652 150.63 60.418 150.63 60.041V59.8881C150.63 59.5162 150.534 59.2793 150.34 59.1774C150.187 59.0856 149.973 59.0398 149.698 59.0398Z" fill="#0D0D0D"/>
<path d="M98.5121 75.1275V74.6689V73.5607C98.5121 73.3875 98.5146 73.2703 98.5197 73.2091C98.5299 72.8932 98.591 72.6334 98.7031 72.4296C98.8662 72.129 99.0878 71.9099 99.3681 71.7723C99.7451 71.5889 100.227 71.4971 100.813 71.4971C101.19 71.4971 101.646 71.5405 102.181 71.6271V72.1086C101.615 72.0169 101.159 71.971 100.813 71.971C100.115 71.971 99.6407 72.1111 99.391 72.3914C99.2381 72.5493 99.1388 72.7378 99.0929 72.9569C99.0624 73.1505 99.0471 73.3518 99.0471 73.5607V75.0052C99.0471 75.153 99.0496 75.2549 99.0547 75.3109C99.0649 75.5606 99.1108 75.7619 99.1923 75.9147C99.4521 76.3682 99.9922 76.5949 100.813 76.5949C101.21 76.5949 101.666 76.5491 102.181 76.4574V76.9312C101.692 77.0229 101.235 77.0688 100.813 77.0688C99.9719 77.0688 99.3706 76.893 99.0089 76.5414C98.8 76.3478 98.6624 76.116 98.5961 75.8459C98.5401 75.6166 98.5121 75.3772 98.5121 75.1275Z" fill="white"/>
<path d="M93.544 70H0V78.7428H93.544V70Z" fill="url(#paint2_linear)"/>
<path d="M143.139 78.7428H157.991V70H143.139L139 74.4415L143.139 78.7428Z" fill="white"/>
<path d="M141 74.5L107 74.5" stroke="white" stroke-width="0.523829" stroke-miterlimit="10"/>
<path d="M147.512 75.1275V74.6689V73.5607C147.512 73.3875 147.515 73.2703 147.52 73.2091C147.53 72.8932 147.591 72.6334 147.703 72.4296C147.866 72.129 148.088 71.9099 148.368 71.7723C148.745 71.5889 149.227 71.4971 149.813 71.4971C150.19 71.4971 150.646 71.5405 151.181 71.6271V72.1086C150.615 72.0169 150.159 71.971 149.813 71.971C149.115 71.971 148.641 72.1111 148.391 72.3914C148.238 72.5493 148.139 72.7378 148.093 72.9569C148.062 73.1505 148.047 73.3518 148.047 73.5607V75.0052C148.047 75.153 148.05 75.2549 148.055 75.3109C148.065 75.5606 148.111 75.7619 148.192 75.9147C148.452 76.3682 148.992 76.5949 149.813 76.5949C150.21 76.5949 150.666 76.5491 151.181 76.4574V76.9312C150.692 77.0229 150.235 77.0688 149.813 77.0688C148.972 77.0688 148.371 76.893 148.009 76.5414C147.8 76.3478 147.662 76.116 147.596 75.8459C147.54 75.6166 147.512 75.3772 147.512 75.1275Z" fill="#0D0D0D"/>
<path d="M113.606 91H111.665V85.5659H113.606C114.411 85.5659 115 85.7341 115.372 86.0704C115.744 86.4066 115.93 86.9544 115.93 87.7136V88.8524C115.93 89.6115 115.741 90.1593 115.364 90.4956C114.987 90.8319 114.401 91 113.606 91ZM112.2 86.0398V90.5261H113.606C114.233 90.5261 114.686 90.3962 114.967 90.1364C115.252 89.8765 115.395 89.4485 115.395 88.8524V87.7136C115.395 87.1123 115.252 86.6843 114.967 86.4296C114.686 86.1697 114.233 86.0398 113.606 86.0398H112.2Z" fill="white"/>
<path d="M106.116 84H0V92.7428H106.116V84Z" fill="url(#paint3_linear)"/>
<path d="M143.139 92.7428H157.991V84H143.139L139 88.4415L143.139 92.7428Z" fill="white"/>
<path d="M141 88.5L120 88.5" stroke="white" stroke-width="0.523829" stroke-miterlimit="10"/>
<path d="M149.606 91H147.665V85.5659H149.606C150.411 85.5659 151 85.7341 151.372 86.0704C151.744 86.4066 151.93 86.9544 151.93 87.7136V88.8524C151.93 89.6115 151.741 90.1593 151.364 90.4956C150.987 90.8319 150.401 91 149.606 91ZM148.2 86.0398V90.5261H149.606C150.233 90.5261 150.686 90.3962 150.967 90.1364C151.252 89.8765 151.395 89.4485 151.395 88.8524V87.7136C151.395 87.1123 151.252 86.6843 150.967 86.4296C150.686 86.1697 150.233 86.0398 149.606 86.0398H148.2Z" fill="#0D0D0D"/>
<path d="M126.5 102.073V102.547H124.208V105H123.665V99.5659H126.867V100.04H124.208V102.073H126.5Z" fill="white"/>
<path d="M118.304 98H0V106.743H118.304V98Z" fill="url(#paint4_linear)"/>
<path d="M143.139 106.743H157.991V98H143.139L139 102.441L143.139 106.743Z" fill="white"/>
<path d="M141 102.5L131 102.5" stroke="white" stroke-width="0.523829" stroke-miterlimit="10"/>
<path d="M150.5 102.073V102.547H148.208V105H147.665V99.5659H150.867V100.04H148.208V102.073H150.5Z" fill="#0D0D0D"/>
<path d="M66.8049 30.5659L68.7997 36H68.2341L67.5921 34.2421H65.3299L64.6955 36H64.1299L66.1324 30.5659H66.8049ZM66.4686 31.1239H66.4534L65.498 33.7606H67.424L66.4686 31.1239ZM70.5536 31.9646H71.0122V33.6154H72.6707V34.074H71.0122V35.7249H70.5536V34.074H68.9104V33.6154H70.5536V31.9646Z" fill="white"/>
<path d="M59.1558 29H0V37.7428H59.1558V29Z" fill="url(#paint5_linear)"/>
<path d="M143.139 37.7428H157.991V29H143.139L139 33.4415L143.139 37.7428Z" fill="white"/>
<path d="M141 33.5L77 33.5" stroke="white" stroke-width="0.523829" stroke-miterlimit="10"/>
<path d="M147.563 30.5659L149.557 36H148.992L148.35 34.2421H146.088L145.453 36H144.888L146.89 30.5659H147.563ZM147.226 31.1239H147.211L146.256 33.7606H148.182L147.226 31.1239ZM151.311 31.9646H151.77V33.6154H153.428V34.074H151.77V35.7249H151.311V34.074H149.668V33.6154H151.311V31.9646Z" fill="#0D0D0D"/>
<path d="M56.8049 15.5659L58.7997 21H58.2341L57.5921 19.2421H55.3299L54.6955 21H54.1299L56.1324 15.5659H56.8049ZM56.4686 16.1239H56.4534L55.498 18.7606H57.424L56.4686 16.1239ZM60.5536 16.9646H61.0122V18.6154H62.6707V19.074H61.0122V20.7249H60.5536V19.074H58.9104V18.6154H60.5536V16.9646ZM64.6348 16.9646H65.0934V18.6154H66.7519V19.074H65.0934V20.7249H64.6348V19.074H62.9916V18.6154H64.6348V16.9646Z" fill="white"/>
<path d="M49.2842 15H0V23.7428H49.2842V15Z" fill="url(#paint6_linear)"/>
<path d="M143.139 23.7428H157.991V15H143.139L139 19.4415L143.139 23.7428Z" fill="white"/>
<path d="M141.393 19.5L70.0595 19.5" stroke="white" stroke-width="0.523829" stroke-miterlimit="10"/>
<path d="M145.805 16.5659L147.8 22H147.234L146.592 20.2421H144.33L143.696 22H143.13L145.132 16.5659H145.805ZM145.469 17.1239H145.453L144.498 19.7606H146.424L145.469 17.1239ZM149.554 17.9646H150.012V19.6154H151.671V20.074H150.012V21.7249H149.554V20.074H147.91V19.6154H149.554V17.9646ZM153.635 17.9646H154.093V19.6154H155.752V20.074H154.093V21.7249H153.635V20.074H151.992V19.6154H153.635V17.9646Z" fill="#0D0D0D"/>
<defs>
<linearGradient id="paint0_linear" x1="-1.19521" y1="47.4931" x2="68.4371" y2="47.2497" gradientUnits="userSpaceOnUse">
<stop stop-color="#8DC63F"/>
<stop offset="1" stop-color="#39B54A"/>
</linearGradient>
<linearGradient id="paint1_linear" x1="-1.39442" y1="61.5153" x2="80.1606" y2="61.2349" gradientUnits="userSpaceOnUse">
<stop stop-color="#FBB040"/>
<stop offset="1" stop-color="#F9ED32"/>
</linearGradient>
<linearGradient id="paint2_linear" x1="-1.58624" y1="74.5374" x2="90.9175" y2="74.2201" gradientUnits="userSpaceOnUse">
<stop stop-color="#F47721"/>
<stop offset="1" stop-color="#FBB040"/>
</linearGradient>
<linearGradient id="paint3_linear" x1="-1.79282" y1="88.5595" x2="103.135" y2="88.198" gradientUnits="userSpaceOnUse">
<stop stop-color="#C8161D"/>
<stop offset="1" stop-color="#F7941D"/>
</linearGradient>
<linearGradient id="paint4_linear" x1="-1.9994" y1="102.582" x2="114.977" y2="102.176" gradientUnits="userSpaceOnUse">
<stop stop-color="#A01622"/>
<stop offset="1" stop-color="#ED1C24"/>
</linearGradient>
<linearGradient id="paint5_linear" x1="-1.00339" y1="33.4784" x2="57.4957" y2="33.2792" gradientUnits="userSpaceOnUse">
<stop stop-color="#00A14B"/>
<stop offset="1" stop-color="#00833C"/>
</linearGradient>
<linearGradient id="paint6_linear" x1="-0.841077" y1="19.4562" x2="47.9119" y2="19.2865" gradientUnits="userSpaceOnUse">
<stop stop-color="#006838"/>
<stop offset="1" stop-color="#005D32"/>
</linearGradient>
</defs>
</svg>
