<svg width="153" height="153" viewBox="0 0 153 153" fill="none" xmlns="http://www.w3.org/2000/svg">
<path d="M104 76.5001C104 71.0611 102.387 65.7442 99.3654 61.2219C96.3437 56.6995 92.0488 53.1748 87.0238 51.0934C81.9988 49.012 76.4695 48.4674 71.135 49.5285C65.8005 50.5896 60.9005 53.2087 57.0546 57.0546C53.2086 60.9006 50.5895 65.8006 49.5284 71.1351C48.4673 76.4696 49.0119 81.9989 51.0933 87.0239C53.1747 92.0488 56.6995 96.3437 61.2218 99.3655C65.7442 102.387 71.061 104 76.5 104L76.5 103.945C71.0719 103.945 65.7657 102.335 61.2524 99.3197C56.7391 96.3041 53.2214 92.0177 51.1441 87.0028C49.0669 81.9879 48.5234 76.4696 49.5823 71.1458C50.6413 65.822 53.2552 60.9318 57.0935 57.0935C60.9317 53.2553 65.8219 50.6414 71.1457 49.5824C76.4696 48.5234 81.9878 49.0669 87.0027 51.1442C92.0177 53.2214 96.304 56.7391 99.3197 61.2524C102.335 65.7657 103.945 71.072 103.945 76.5001H104Z" stroke="#6D6E71" stroke-width="7" stroke-linecap="round"/>
<path id="property-circle-4" d="M76.5 104C71.061 104 65.7442 102.387 61.2218 99.3654C56.6995 96.3437 53.1747 92.0488 51.0933 87.0238C49.0119 81.9988 48.4673 76.4695 49.5284 71.135C50.5895 65.8005 53.2086 60.9005 57.0546 57.0546C60.9005 53.2086 65.8005 50.5895 71.135 49.5284C76.4695 48.4673 81.9988 49.0119 87.0238 51.0933C92.0488 53.1747 96.3437 56.6995 99.3654 61.2218C102.387 65.7442 104 71.061 104 76.5L103.945 76.5C103.945 71.0719 102.335 65.7657 99.3197 61.2524C96.304 56.7391 92.0177 53.2214 87.0027 51.1441C81.9878 49.0669 76.4696 48.5234 71.1457 49.5823C65.8219 50.6413 60.9317 53.2552 57.0935 57.0935C53.2552 60.9317 50.6413 65.8219 49.5823 71.1457C48.5234 76.4696 49.0669 81.9878 51.1441 87.0027C53.2214 92.0177 56.7391 96.304 61.2524 99.3197C65.7657 102.335 71.0719 103.945 76.5 103.945L76.5 104Z" stroke="url(#paint0_linear)" stroke-width="7" stroke-linecap="round"/>
<path d="M76.5 119C68.0943 119 59.8774 116.507 52.8883 111.837C45.8992 107.167 40.4518 100.53 37.2351 92.764C34.0184 84.9982 33.1768 76.4529 34.8166 68.2087C36.4565 59.9645 40.5042 52.3917 46.448 46.448C52.3917 40.5042 59.9645 36.4565 68.2087 34.8166C76.4529 33.1768 84.9982 34.0184 92.764 37.2351C100.53 40.4518 107.167 45.8992 111.837 52.8883C116.507 59.8774 119 68.0943 119 76.5L118.915 76.5C118.915 68.1111 116.427 59.9106 111.767 52.9355C107.106 45.9604 100.482 40.5239 92.7315 37.3136C84.9812 34.1034 76.4529 33.2634 68.2252 34.9C59.9975 36.5366 52.4399 40.5762 46.5081 46.5081C40.5762 52.4399 36.5366 59.9975 34.9 68.2252C33.2634 76.4529 34.1034 84.9812 37.3137 92.7315C40.5239 100.482 45.9604 107.106 52.9355 111.767C59.9106 116.427 68.1111 118.915 76.5 118.915L76.5 119Z" stroke="#6D6E71" stroke-width="7" stroke-linecap="round"/>
<path id="property-circle-3" d="M76.5 119C72.2007 119 67.9262 118.348 63.8226 117.065L63.848 116.984C67.9434 118.264 72.2093 118.915 76.5 118.915L76.5 119Z" stroke="url(#paint1_linear)" stroke-width="7" stroke-linecap="round"/>
<path d="M134 76.5C134 65.1276 130.628 54.0106 124.31 44.5547C117.991 35.0989 109.011 27.729 98.5043 23.377C87.9975 19.0249 76.4362 17.8862 65.2823 20.1049C54.1284 22.3235 43.8829 27.7999 35.8414 35.8414C27.7998 43.8829 22.3235 54.1284 20.1048 65.2823C17.8862 76.4362 19.0249 87.9976 23.3769 98.5043C27.729 109.011 35.0989 117.991 44.5547 124.31C54.0105 130.628 65.1276 134 76.5 134L76.5 133.885C65.1503 133.885 54.0555 130.519 44.6186 124.214C35.1817 117.908 27.8265 108.946 23.4832 98.4603C19.1398 87.9746 18.0034 76.4364 20.2176 65.3048C22.4318 54.1732 27.8972 43.9481 35.9227 35.9227C43.9481 27.8973 54.1731 22.4319 65.3047 20.2177C76.4363 18.0035 87.9746 19.1399 98.4603 23.4832C108.946 27.8265 117.908 35.1817 124.214 44.6186C130.519 54.0555 133.885 65.1503 133.885 76.5H134Z" stroke="#6D6E71" stroke-width="7" stroke-linecap="round"/>
<path d="M76.5 134C66.358 134 56.3964 131.317 47.6259 126.225C38.8553 121.132 31.5879 113.81 26.5607 105.001C21.5336 96.1928 18.9257 86.2114 19.0016 76.0697C19.0775 65.928 21.8345 55.9867 26.9929 47.2545L27.0919 47.313C21.9439 56.0278 19.1924 65.9491 19.1166 76.0705C19.0409 86.192 21.6435 96.1534 26.6606 104.944C31.6777 113.735 38.9306 121.042 47.6836 126.125C56.4366 131.208 66.3783 133.885 76.5 133.885L76.5 134Z" stroke="url(#paint2_linear)" stroke-width="7" stroke-linecap="round"/>
<path d="M149 76.5C149 62.1609 144.748 48.1437 136.782 36.2212C128.815 24.2986 117.492 15.0061 104.245 9.51875C90.9969 4.0314 76.4196 2.59565 62.356 5.39308C48.2923 8.19051 35.3741 15.0955 25.2348 25.2348C15.0955 35.3741 8.1905 48.2923 5.39307 62.356C2.59564 76.4196 4.03138 90.9969 9.51873 104.245C15.0061 117.492 24.2986 128.815 36.2212 136.782C48.1437 144.748 62.1609 149 76.5 149L76.5 148.855C62.1895 148.855 48.2004 144.611 36.3017 136.661C24.403 128.711 15.1291 117.41 9.65269 104.189C4.17631 90.9679 2.74344 76.4198 5.53528 62.3843C8.32711 48.3488 15.2183 35.4563 25.3373 25.3373C35.4563 15.2183 48.3487 8.32713 62.3842 5.53529C76.4197 2.74346 90.9679 4.17633 104.189 9.65271C117.41 15.1291 128.711 24.403 136.661 36.3017C144.611 48.2004 148.855 62.1895 148.855 76.5H149Z" stroke="#6D6E71" stroke-width="7" stroke-linecap="round"/>
<path d="M76.5 149C58.6496 149 41.4266 142.415 28.1298 130.505C14.833 118.596 6.39716 102.2 4.438 84.4572C2.47883 66.7146 7.13408 48.8729 17.5121 34.3493C27.8901 19.8258 43.2614 9.64133 60.6817 5.74667L60.7134 5.88818C43.3279 9.77504 27.9874 19.9391 17.6301 34.4336C7.27281 48.9282 2.62687 66.7342 4.58212 84.4413C6.53736 102.148 14.9563 118.512 28.2265 130.397C41.4967 142.283 58.6853 148.855 76.5 148.855L76.5 149Z" stroke="url(#paint3_linear)" stroke-width="7" stroke-linecap="round"/>
<text transform="translate(108 83) rotate(90)" fill="white" xml:space="preserve" style="white-space: pre" font-family="Metronic Pro" font-size="6" letter-spacing="-0.1em"><tspan x="0" y="5.638">33%</tspan></text>
<text fill="white" xml:space="preserve" style="white-space: pre" font-family="Metronic Pro" font-size="6" letter-spacing="-0.05em"><tspan x="85" y="105.638">&#x428;&#x423;&#x41c;&#x41e;&#x418;&#x417;&#x41e;&#x41b;&#x42f;&#x426;&#x418;&#x42f;</tspan></text>
<text fill="white" xml:space="preserve" style="white-space: pre" font-family="Metronic Pro" font-size="6" letter-spacing="-0.05em"><tspan x="85" y="120.638">&#x421;&#x41e;&#x41b;&#x41d;&#x426;&#x415;&#x417;&#x410;&#x429;&#x418;&#x422;&#x410;</tspan></text>
<text fill="white" xml:space="preserve" style="white-space: pre" font-family="Metronic Pro" font-size="6" letter-spacing="-0.05em"><tspan x="85" y="135.638">&#x411;&#x415;&#x417;&#x41e;&#x41f;&#x410;&#x421;&#x41d;&#x41e;&#x421;&#x422;&#x42c;</tspan></text>
<text fill="white" xml:space="preserve" style="white-space: pre" font-family="Metronic Pro" font-size="6" letter-spacing="-0.05em"><tspan x="85" y="150.638">&#x414;&#x418;&#x417;&#x410;&#x419;&#x41d;</tspan></text>
<text transform="translate(123 83) rotate(90)" fill="white" xml:space="preserve" style="white-space: pre" font-family="Metronic Pro" font-size="6" letter-spacing="-0.1em"><tspan x="0" y="5.638">55%</tspan></text>
<text transform="translate(138 83) rotate(90)" fill="white" xml:space="preserve" style="white-space: pre" font-family="Metronic Pro" font-size="6" letter-spacing="-0.1em"><tspan x="0" y="5.638">100%</tspan></text>
<text transform="translate(153 83) rotate(90)" fill="white" xml:space="preserve" style="white-space: pre" font-family="Metronic Pro" font-size="6" letter-spacing="-0.1em"><tspan x="0" y="5.638">100%</tspan></text>
<defs>
<linearGradient id="paint0_linear" x1="54.5" y1="99" x2="104" y2="76" gradientUnits="userSpaceOnUse">
<stop stop-color="#FAA73D"/>
<stop offset="1" stop-color="#FAE833"/>
</linearGradient>
<linearGradient id="paint1_linear" x1="42.5" y1="111.273" x2="119" y2="75.7273" gradientUnits="userSpaceOnUse">
<stop stop-color="#50A33B"/>
<stop offset="1" stop-color="#51A43B"/>
</linearGradient>
<linearGradient id="paint2_linear" x1="30.5" y1="123.545" x2="134" y2="75.4545" gradientUnits="userSpaceOnUse">
<stop stop-color="#D12C1E"/>
<stop offset="1" stop-color="#F6911E"/>
</linearGradient>
<linearGradient id="paint3_linear" x1="18.5" y1="135.818" x2="149" y2="75.1818" gradientUnits="userSpaceOnUse">
<stop stop-color="#309139"/>
<stop offset="1" stop-color="#83C13F"/>
</linearGradient>
</defs>
</svg>
