<?xml version="1.0" encoding="UTF-8" standalone="no"?>
<!DOCTYPE svg PUBLIC "-//W3C//DTD SVG 1.1//EN" "http://www.w3.org/Graphics/SVG/1.1/DTD/svg11.dtd">
<svg version="1.1" xmlns="http://www.w3.org/2000/svg" xmlns:xlink="http://www.w3.org/1999/xlink" preserveAspectRatio="xMidYMid meet" viewBox="0 0 640 640" width="640" height="640"><defs><path d="M320 579.44C176.48 579.28 60.16 462.98 59.97 319.45C60.16 175.93 176.48 59.63 320 59.47C463.52 59.63 579.82 175.94 579.98 319.45C577.08 319.45 553.85 319.45 550.94 319.45C550.83 191.84 447.4 88.42 319.79 88.3C192.19 88.44 88.78 191.85 88.64 319.45C88.78 447.06 192.19 550.47 319.79 550.61C319.83 556.37 319.96 573.67 320 579.44Z" id="dBTtRRdYM"></path><path d="M320 516.94C213.54 516.94 126.92 428.68 126.92 320.46C126.92 212.24 213.54 123.98 320 123.98C426.46 123.98 513.12 212.11 513.12 320.46C510.37 320.46 488.34 320.46 485.59 320.46C485.59 227.29 411.33 151.51 320.08 151.51C228.84 151.51 154.58 227.16 154.58 320.46C154.58 413.76 228.8 489.37 320.08 489.37C320.07 494.89 320.02 511.43 320 516.94Z" id="bKLZCGb5M"></path><path d="M353.41 427.04L353.41 448.4L361.06 448.4L361.06 427.04L363.33 427.04L363.33 450.45L341.22 450.45L341.22 427.04L343.54 427.04L343.54 448.4L351.1 448.4L351.1 427.04L353.41 427.04Z" id="bZpNAVdIu"></path><path d="M368.33 448.73C370.57 447.32 372.35 445.29 373.46 442.89C372.96 441.83 370.48 436.55 366.02 427.04L368.67 427.04L374.72 440.58L374.72 440.58L380.65 427.04L383.34 427.04C378.8 436.73 376.28 442.11 375.77 443.18C374.49 446.3 372.27 448.95 369.42 450.75C369.21 450.35 368.55 449.13 368.33 448.73Z" id="b2e6jI8mwb"></path><path d="M403.38 430.2L403.38 430.2L396.91 447.26L394.98 447.26L388.63 430.45L388.63 430.45L387.03 450.45L384.72 450.45L386.32 427.04L389.39 427.04L395.78 444.28L402.16 427.04L405.23 427.04L406.79 450.45L404.52 450.45L403.38 430.2Z" id="i19ZKqdRFg"></path><path d="M427.68 441.5C427.68 444.91 427.42 450.75 419.27 450.75C411.12 450.75 410.86 444.95 410.86 441.5C410.86 440.95 410.86 436.51 410.86 435.95C410.86 432.55 410.86 426.75 419.27 426.75C427.68 426.75 427.68 432.59 427.68 436C427.68 437.1 427.68 440.4 427.68 441.5ZM425.36 436C425.36 431.79 424.06 428.77 419.14 428.77C414.23 428.77 412.84 431.92 412.84 435.95C412.84 436.51 412.84 440.95 412.84 441.5C412.84 445.71 414.39 448.69 419.14 448.69C423.89 448.69 425.41 445.5 425.41 441.5C425.4 440.4 425.37 437.1 425.36 436Z" id="e1vqX8bc3H"></path><path d="M443.52 427.04L446.38 427.04L446.38 450.45L444.07 450.45L444.07 431.16L444.07 431.16L434.74 450.45L432.09 450.45L432.09 427.04L434.4 427.04L434.4 446.08L434.4 446.08L443.52 427.04Z" id="at4jL5aO"></path><path d="M462.6 443.94C462.6 450.12 459.32 450.75 454.95 450.75C453.24 450.72 451.55 450.47 449.91 449.99C449.91 449.79 449.91 448.18 449.91 447.97C451.55 448.42 453.25 448.67 454.95 448.73C458.02 448.73 460.29 448.31 460.29 443.94C460.29 441.38 459.24 439.19 456.42 439.19C456.19 439.19 455.03 439.19 452.93 439.19L452.93 437.13C455.05 437.13 456.23 437.13 456.46 437.13C458.32 437.15 459.84 435.65 459.85 433.8C459.85 433.65 459.85 433.5 459.83 433.35C459.83 429.15 457.6 428.77 454.53 428.77C453.2 428.79 451.87 428.96 450.58 429.27C450.58 429.07 450.58 427.46 450.58 427.26C451.87 426.93 453.2 426.76 454.53 426.75C458.73 426.75 462.14 427.21 462.14 433.35C462.26 435.29 461.31 437.15 459.66 438.18C461.68 439.36 462.83 441.61 462.6 443.94Z" id="aB3UtaXB"></path><path d="M483.24 441.5C483.24 444.91 482.98 450.75 474.83 450.75C466.68 450.75 466.43 444.95 466.43 441.5C466.43 440.95 466.43 436.51 466.43 435.95C466.43 432.55 466.64 426.75 474.83 426.75C483.03 426.75 483.24 432.59 483.24 436C483.24 437.1 483.24 440.4 483.24 441.5ZM480.88 436C480.88 431.79 479.58 428.77 474.66 428.77C469.75 428.77 468.4 431.92 468.4 435.95C468.4 436.51 468.4 440.95 468.4 441.5C468.4 445.71 469.96 448.69 474.66 448.69C479.37 448.69 480.97 445.5 480.92 441.5C480.92 440.4 480.89 437.1 480.88 436Z" id="bm0g0rfgT"></path><path d="M485.21 449.15C487.14 446.82 488.38 444 488.78 441C488.89 440.07 489.44 435.45 490.42 427.13L500.26 427.13L500.26 450.54L497.99 450.54L497.99 429.19L492.4 429.19C491.59 436.45 491.14 440.49 491.05 441.29C490.68 444.83 489.21 448.17 486.85 450.83C486.52 450.5 485.54 449.49 485.21 449.15Z" id="e11udEjuRD"></path><path d="M509.84 441.21C506.44 441.21 504.25 440.07 504.25 434.11C504.25 428.14 506.65 427.04 510.43 427.04C510.92 427.04 513.4 427.04 517.87 427.04L517.87 450.45L515.56 450.45L515.56 441.21L512.28 441.21L507.11 450.45L504.33 450.45C507.27 445.52 509.11 442.44 509.84 441.21ZM515.56 439.23L515.56 429.1C512.43 429.1 510.69 429.1 510.34 429.1C507.99 429.1 506.56 429.69 506.56 434.11C506.56 438.52 507.99 439.23 510.34 439.23C511.04 439.23 512.78 439.23 515.56 439.23Z" id="e2RbO0N5vx"></path><path d="M538.33 455.33L536.23 455.33L536.23 450.45L522.66 450.45L522.66 427.04L524.97 427.04L524.97 448.4L534.26 448.4L534.26 427.04L536.57 427.04L536.57 448.4L538.33 448.4L538.33 455.33Z" id="busalXUTL"></path><path d="M553.72 427.04L556.57 427.04L556.57 450.45L554.26 450.45L554.26 431.16L554.26 431.16L544.93 450.45L542.29 450.45L542.29 427.04L544.6 427.04L544.6 446.08L544.6 446.08L553.72 427.04Z" id="dxkTMVUru"></path><path d="M566.12 441.21C562.71 441.21 560.57 440.07 560.57 434.11C560.57 428.14 562.96 427.04 566.7 427.04C567.2 427.04 569.7 427.04 574.18 427.04L574.18 450.45L571.96 450.45L571.96 441.21L568.68 441.21L563.55 450.45L560.74 450.45C563.6 445.52 565.4 442.44 566.12 441.21ZM571.87 439.23L571.87 429.1C568.72 429.1 566.97 429.1 566.62 429.1C564.31 429.1 562.84 429.69 562.84 434.11C562.84 438.52 564.31 439.23 566.62 439.23C567.32 439.23 569.07 439.23 571.87 439.23Z" id="b3xncewCNK"></path><path d="M340.8 497.19C340.8 493.91 340.8 488.32 349.21 488.32C350.93 488.33 352.65 488.52 354.34 488.87C354.34 489.07 354.34 490.72 354.34 490.93C352.65 490.56 350.93 490.37 349.21 490.34C343.16 490.34 343.03 494.54 343.03 497.19C343.03 497.81 343.03 502.79 343.03 503.41C343.03 506.27 343.03 510.26 349.21 510.26C350.93 510.23 352.65 510.03 354.34 509.67C354.34 509.88 354.34 511.53 354.34 511.73C352.65 512.06 350.93 512.21 349.21 512.19C340.8 512.19 340.8 506.56 340.8 503.33C340.8 502.1 340.8 498.42 340.8 497.19Z" id="a5FVg1ojkY"></path><path d="M374.43 503.03C374.43 506.48 374.13 512.28 366.02 512.28C357.91 512.28 357.61 506.48 357.61 503.07C357.61 502.52 357.61 498.08 357.61 497.53C357.61 494.08 357.83 488.32 366.02 488.32C374.22 488.32 374.43 494.12 374.43 497.53C374.43 498.63 374.43 501.93 374.43 503.03ZM372.07 497.53C372.07 493.32 370.77 490.34 365.85 490.34C360.94 490.34 359.59 493.45 359.59 497.53C359.59 498.08 359.59 502.52 359.59 503.07C359.59 507.28 361.1 510.26 365.85 510.26C370.6 510.26 372.16 507.07 372.11 503.03C372.11 501.93 372.08 498.63 372.07 497.53Z" id="bd6kWOLKU"></path><path d="M376.32 510.6C378.26 508.27 379.5 505.44 379.89 502.44C380 501.52 380.53 496.91 381.49 488.62L391.24 488.62L391.24 512.19L388.93 512.19L388.93 490.84L383.38 490.84C382.55 498.13 382.08 502.18 381.99 502.99C381.61 506.52 380.14 509.84 377.79 512.49C377.49 512.11 376.61 510.97 376.32 510.6Z" id="b2csRZ61Ev"></path><path d="M408.38 501.01L398.59 501.01L398.59 512.19L396.32 512.19L396.32 488.83L398.59 488.83L398.59 499.16L408.38 499.16L408.38 488.83L410.7 488.83L410.7 512.19L408.38 512.19L408.38 501.01Z" id="b2T9iXp2ry"></path><path d="M431.33 516.9L429.06 516.9L429.06 512.19L415.61 512.19L415.61 488.83L417.92 488.83L417.92 510.18L427.21 510.18L427.21 488.83L429.52 488.83L429.52 510.18L431.33 510.18L431.33 516.9Z" id="b6flKgQ2JD"></path><path d="M434.99 512.19L434.99 488.83L446.92 488.83L446.92 490.84L437.47 490.84L437.47 499.58L445.87 499.58L445.87 501.64L437.47 501.64L437.47 510.05L447.34 510.05L447.34 512.19L434.99 512.19Z" id="c5F8r8CCK"></path><path d="M462.39 505.34C462.39 511.48 459.07 512.11 454.7 512.11C453 512.08 451.3 511.84 449.66 511.39C449.66 511.19 449.66 509.54 449.66 509.34C451.3 509.8 452.99 510.05 454.7 510.09C457.81 510.09 460.08 509.67 460.08 505.34C460.08 502.74 459.03 500.55 456.17 500.55C455.94 500.55 454.77 500.55 452.68 500.55L452.68 498.49C454.83 498.49 456.02 498.49 456.25 498.49C458.09 498.53 459.61 497.08 459.65 495.25C459.65 495.07 459.64 494.89 459.62 494.71C459.62 490.51 457.39 490.13 454.32 490.13C452.9 490.16 451.49 490.34 450.12 490.68C450.12 490.47 450.12 488.82 450.12 488.62C451.5 488.3 452.91 488.15 454.32 488.15C458.52 488.15 461.93 488.57 461.93 494.71C462.04 496.67 461.08 498.54 459.41 499.58C461.45 500.75 462.62 503 462.39 505.34Z" id="aVqlG4xqM"></path><path d="M479.2 512.19L476.93 504.63L468.9 504.63L466.89 512.19L464.45 512.19L471.68 488.83L474.66 488.83L481.64 512.19L479.2 512.19ZM469.62 502.57L476.26 502.57L472.98 491.22L472.98 491.22L469.62 502.57Z" id="e327TSmoqN"></path><path d="M484.67 512.19L484.67 488.83L486.93 488.83L486.93 510.18L494.5 510.18L494.5 488.83L496.81 488.83L496.81 510.18L504.71 510.18L504.71 488.83L506.98 488.83L506.98 510.18L508.75 510.18L508.75 517.11L506.65 517.11L506.65 512.19L484.67 512.19Z" id="c1eZTu1bg8"></path><path d="M523.75 488.62L526.65 488.62L526.65 512.19L524.34 512.19L524.34 492.9L524.34 492.9L514.93 512.19L512.24 512.19L512.24 488.83L514.55 488.83L514.55 507.86L514.55 507.86L523.75 488.62Z" id="e1N8VDT2d"></path><path d="M535.86 490.63L529.63 490.63L529.63 488.62L544.26 488.62L544.26 490.63L538.33 490.63L538.33 512.19L536.07 512.19L535.86 490.63Z" id="bJGTbn5OZ"></path><path d="M558.55 512.19L556.28 504.63L548.25 504.63L546.03 512.19L543.59 512.19L550.94 488.62L553.88 488.62L560.99 512.19L558.55 512.19ZM548.93 502.57L555.57 502.57L552.29 491.22L552.29 491.22L548.93 502.57Z" id="b1HXwzMOzR"></path><path d="M349.21 559.64C351.9 559.64 355.05 560.23 355.14 565.61C355.14 565.81 355.14 567.43 355.14 567.63C355.14 572.97 351.86 573.55 349.17 573.55C348.64 573.55 345.99 573.55 341.22 573.55L341.22 550.02L352.49 550.02L352.49 552.08L343.54 552.08L343.54 559.52C346.56 559.58 348.45 559.63 349.21 559.64ZM343.58 571.49C346.96 571.49 348.83 571.49 349.21 571.49C350.85 571.49 352.74 571.16 352.87 567.59C352.87 567.39 352.87 565.81 352.87 565.61C352.87 562.04 350.85 561.7 349.21 561.7C348.83 561.7 346.96 561.7 343.58 561.7L343.58 571.49Z" id="a5GeLn3z1c"></path><path d="M358.92 573.55L358.92 550.02L370.81 550.02L370.81 552.08L361.19 552.08L361.19 560.82L369.59 560.82L369.59 562.84L361.19 562.84L361.19 571.24L371.06 571.24L371.06 573.3L358.92 573.55Z" id="i8aBSIQOb1"></path><path d="M386.28 567.04C386.28 573.22 383 573.85 378.59 573.85C376.9 573.82 375.22 573.58 373.59 573.13C373.59 572.92 373.59 571.24 373.59 571.03C375.22 571.47 376.9 571.73 378.59 571.79C381.7 571.79 383.97 571.37 383.97 567C383.97 564.43 382.92 562.25 380.1 562.25C379.87 562.25 378.7 562.25 376.61 562.25L376.61 560.19C378.73 560.19 379.91 560.19 380.14 560.19C382 560.2 383.52 558.71 383.53 556.85C383.53 556.7 383.52 556.55 383.5 556.41C383.5 552.2 381.28 551.83 378.21 551.83C376.86 551.85 375.52 552.02 374.22 552.33C374.22 552.13 374.22 550.51 374.22 550.31C375.52 549.99 376.86 549.82 378.21 549.81C382.41 549.81 385.82 550.27 385.82 556.41C385.96 558.38 384.98 560.26 383.29 561.28C385.33 562.45 386.49 564.7 386.28 567.04Z" id="d1uG3brdNe"></path><path d="M406.91 564.6C406.91 568.01 406.62 573.85 398.51 573.85C390.4 573.85 390.1 568.05 390.1 564.64C390.1 564.09 390.1 559.61 390.1 559.05C390.1 555.65 390.31 549.85 398.51 549.85C406.7 549.85 406.91 555.69 406.91 559.1C406.91 560.2 406.91 563.5 406.91 564.6ZM404.56 559.1C404.56 554.89 403.26 551.91 398.34 551.91C393.42 551.91 392.08 555.02 392.08 559.05C392.08 559.61 392.08 564.09 392.08 564.64C392.08 568.85 393.59 571.79 398.34 571.79C403.09 571.79 404.64 568.59 404.6 564.6C404.59 563.5 404.57 560.2 404.56 559.1Z" id="c5RgRGEaJF"></path><path d="M422.84 552.2L413.51 552.2L413.51 573.55L411.2 573.55L411.2 550.02L425.11 550.02L425.11 573.43L422.84 573.43L422.84 552.2Z" id="a1lvuhrCZX"></path><path d="M443.06 573.55L440.79 565.99L432.76 565.99L430.53 573.55L428.1 573.55L435.32 550.02L438.31 550.02L445.5 573.43L443.06 573.55ZM433.27 563.89L439.95 563.89L436.63 552.54L436.63 552.54L433.27 563.89Z" id="bn5fuwiN"></path><path d="M447.55 558.72C447.55 555.48 447.55 549.85 455.96 549.85C457.67 549.86 459.37 550.05 461.05 550.4C461.05 550.61 461.05 552.29 461.05 552.5C459.38 552.12 457.67 551.92 455.96 551.91C449.87 551.91 449.74 555.86 449.74 558.72C449.74 559.34 449.74 564.32 449.74 564.94C449.74 567.8 449.74 571.79 455.96 571.79C457.67 571.78 459.38 571.58 461.05 571.2C461.05 571.41 461.05 573.05 461.05 573.26C459.38 573.65 457.67 573.85 455.96 573.85C447.55 573.85 447.55 568.22 447.55 564.94C447.55 563.69 447.55 559.96 447.55 558.72Z" id="d6HyDVb3JU"></path><path d="M477.02 562.63L467.27 562.63L467.27 573.64L464.95 573.64L464.95 550.02L467.27 550.02L467.27 560.4L477.02 560.4L477.02 550.02L479.5 550.02L479.5 573.43L477.18 573.43L477.02 562.63Z" id="bU8b6IPWa"></path><path d="M500.76 564.6C500.76 568.01 500.51 573.85 492.36 573.85C484.2 573.85 483.95 568.05 483.95 564.64C483.95 564.09 483.95 559.61 483.95 559.05C483.95 555.65 483.95 549.85 492.36 549.85C500.76 549.85 500.76 555.69 500.76 559.1C500.76 560.2 500.76 563.5 500.76 564.6ZM498.45 559.1C498.45 554.89 497.11 551.91 492.23 551.91C487.35 551.91 485.93 555.02 485.93 559.05C485.93 559.61 485.93 564.09 485.93 564.64C485.93 568.85 487.48 571.79 492.23 571.79C496.98 571.79 498.49 568.59 498.45 564.6C498.45 563.5 498.45 560.2 498.45 559.1Z" id="bMR5GP0am"></path><path d="M504.71 558.72C504.71 555.48 504.71 549.85 513.12 549.85C514.83 549.86 516.53 550.05 518.2 550.4C518.2 550.61 518.2 552.29 518.2 552.5C516.53 552.12 514.83 551.92 513.12 551.91C507.02 551.91 506.94 555.86 506.94 558.72C506.94 559.34 506.94 564.32 506.94 564.94C506.94 567.8 506.94 571.79 513.12 571.79C514.83 571.78 516.53 571.58 518.2 571.2C518.2 571.41 518.2 573.05 518.2 573.26C516.54 573.65 514.83 573.85 513.12 573.85C504.71 573.85 504.71 568.22 504.71 564.94C504.71 563.69 504.71 559.96 504.71 558.72Z" id="a1bqDcN9U1"></path><path d="M526.19 552.2L519.97 552.2L519.97 550.02L534.59 550.02L534.59 552.08L528.46 552.08L528.46 573.43L526.19 573.43L526.19 552.2Z" id="bZPh8d3qn"></path><path d="M545.52 559.64C548.17 559.64 551.32 560.23 551.49 565.61C551.49 565.81 551.49 567.43 551.49 567.63C551.49 572.97 548.17 573.55 545.52 573.55C544.99 573.55 542.34 573.55 537.58 573.55L537.58 550.02L539.89 550.02L539.89 559.52C542.89 559.58 544.77 559.63 545.52 559.64ZM539.89 571.49C543.27 571.49 545.15 571.49 545.52 571.49C547.16 571.49 549.05 571.16 549.18 567.59C549.18 567.39 549.18 565.81 549.18 565.61C549.18 562.04 547.16 561.7 545.52 561.7C545.15 561.7 543.27 561.7 539.89 561.7L539.89 571.49Z" id="duyKIeSzM"></path><path d="M341.98 640L339.63 640L339.63 633.07C340.51 633.07 341 633.07 341.1 633.07C344.25 630.46 345.72 626.55 345.72 618.19C345.72 617.76 345.72 615.6 345.72 611.72L355.39 611.72L355.39 633.07L357.36 633.07L357.36 640L355.22 640L355.22 635.08L341.98 635.08L341.98 640ZM353.08 633.07L353.08 613.73L347.99 613.73C347.99 616.43 347.99 617.93 347.99 618.23C348.52 623.46 347.2 628.71 344.25 633.07C345.43 633.07 348.37 633.07 353.08 633.07Z" id="g8hkLhoJU"></path><path d="M372.41 611.72L375.27 611.72L375.27 635.08L373 635.08L373 615.79L373 615.79L363.71 635.08L361.02 635.08L361.02 611.72L363.33 611.72L363.33 630.75L363.33 630.75L372.41 611.72Z" id="d1eLZwXz3M"></path><path d="M391.49 628.61C391.49 634.75 388.21 635.38 383.84 635.38C382.14 635.35 380.44 635.11 378.8 634.66C378.8 634.46 378.8 632.81 378.8 632.6C380.44 633.07 382.13 633.32 383.84 633.36C386.95 633.36 389.22 632.94 389.22 628.61C389.22 626 388.13 623.82 385.31 623.82C385.08 623.82 383.92 623.82 381.82 623.82L381.82 621.76C383.97 621.76 385.16 621.76 385.4 621.76C387.25 621.77 388.77 620.28 388.78 618.42C388.79 618.27 388.78 618.13 388.76 617.98C388.76 613.77 386.49 613.4 383.46 613.4C382.12 613.44 380.78 613.62 379.47 613.94C379.47 613.74 379.47 612.09 379.47 611.88C380.78 611.59 382.12 611.43 383.46 611.42C387.66 611.42 391.03 611.88 391.03 617.98C391.16 619.93 390.21 621.81 388.55 622.85C390.58 624.02 391.73 626.28 391.49 628.61Z" id="a1QNkNAA"></path><path d="M408.34 635.08L406.07 627.52L398.05 627.52L395.82 635.08L393.38 635.08L400.61 611.72L403.59 611.72L410.78 635.08L408.34 635.08ZM398.76 625.67L405.4 625.67L402.08 614.32L402.08 614.32L398.76 625.67Z" id="f6NIHmvvLW"></path><path d="M425.28 611.72L428.14 611.72L428.14 635.08L425.87 635.08L425.87 615.79L425.87 615.79L416.45 635.08L413.76 635.08L413.76 611.72L416.08 611.72L416.08 630.75L416.08 630.75L425.28 611.72ZM421.08 610.2C418.64 610.2 417.42 608.86 417.29 606.25C417.47 606.25 418.85 606.25 419.02 606.25C419.02 607.81 419.77 608.56 421.08 608.56C422.38 608.56 423.14 607.81 423.18 606.25C423.35 606.25 424.73 606.25 424.9 606.25C424.61 608.86 423.39 610.2 420.91 610.2C420.94 610.2 421.04 610.2 421.08 610.2Z" id="cVH7AqJsU"></path><path d="M445.16 624.11L435.41 624.11L435.41 635.08L433.27 635.08L433.27 611.72L435.58 611.72L435.58 622.05L445.33 622.05L445.33 611.72L447.64 611.72L447.64 635.08L445.33 635.08L445.16 624.11Z" id="aSrGCtnKn"></path><path d="M320 450.03C247.82 449.96 189.32 391.47 189.25 319.29C189.34 247.12 247.83 188.65 320 188.58C392.18 188.65 450.68 247.15 450.75 319.33C447.86 319.33 424.76 319.33 421.88 319.33C421.81 263.09 376.24 217.52 320 217.45C263.75 217.5 218.17 263.08 218.12 319.33C218.17 375.57 263.75 421.16 320 421.2C320 426.97 320 444.27 320 450.03Z" id="b2toG4CpE8"></path><linearGradient id="gradientboLZvgHu8" gradientUnits="userSpaceOnUse" y2="0%" x2="100%" y1="0%" x1="0%"><stop style="stop-color: grey;" offset="50%"></stop><stop style="stop-color: red;" offset="0%"></stop></linearGradient><path d="M320 638.57C143.65 638.43 0.73 495.51 0.59 319.16C0.73 142.81 143.65 -0.11 320 -0.25C496.35 -0.11 639.27 142.81 639.41 319.16C636.52 319.16 613.43 319.16 610.54 319.16C610.35 158.85 480.44 28.93 320.13 28.75C159.8 28.98 29.91 158.96 29.8 319.29C29.98 479.6 159.9 609.51 320.21 609.7C320.17 615.47 320.04 632.8 320 638.57Z" id="blkYDbJhc"></path><path d="M637.06 339.88L616.04 339.88L616.04 337.78L635 337.78L632.48 332.86L634.45 332.86L637.02 337.74L637.06 339.88Z" id="e5YEFI5jz"></path><path d="M624.07 356.69C619.87 356.69 615.67 356.27 615.67 350.18C615.67 344.08 619.57 343.58 624.07 343.62C624.57 343.62 628.57 343.62 629.07 343.62C633.28 343.62 637.48 344.04 637.48 350.18C637.48 356.31 633.53 356.69 629.07 356.69C628.07 356.69 625.07 356.69 624.07 356.69ZM629.03 354.63C632.81 354.63 635.5 354.21 635.5 350.18C635.5 346.14 632.73 345.68 629.03 345.68C628.53 345.68 624.53 345.68 624.03 345.68C620.2 345.68 617.6 346.02 617.6 350.18C617.6 354.34 620.5 354.63 624.07 354.63C625.06 354.63 628.04 354.63 629.03 354.63Z" id="g2xFo2w7Qw"></path><path d="M624.07 373.5C619.87 373.5 615.67 373.04 615.67 366.99C615.67 360.94 619.57 360.39 624.07 360.39C624.57 360.39 628.57 360.39 629.07 360.39C633.28 360.39 637.48 360.85 637.48 366.99C637.48 373.12 633.53 373.5 629.07 373.5C628.07 373.5 625.07 373.5 624.07 373.5ZM629.03 371.44C632.81 371.44 635.5 371.02 635.5 366.99C635.5 362.95 632.73 362.49 629.03 362.49C628.53 362.49 624.53 362.49 624.03 362.49C620.2 362.49 617.6 362.78 617.6 366.99C617.6 371.19 620.5 371.44 624.07 371.44C625.06 371.44 628.04 371.44 629.03 371.44Z" id="c1WjBSkCld"></path><path d="M637.35 389.77L637.35 391.28L615.75 381.28L615.75 379.76L637.35 389.77ZM621.72 394.52C625.29 394.52 625.67 393.21 625.67 390.73C625.67 388.25 624.87 387.03 621.68 387.03C621.48 387.03 619.9 387.03 619.7 387.03C616.38 387.03 615.75 388.34 615.75 390.73C615.75 393.13 616.46 394.52 619.95 394.52C620.31 394.52 621.36 394.52 621.72 394.52ZM619.74 392.75C617.94 392.75 617.56 392.16 617.56 390.73C617.56 389.3 617.89 388.88 619.74 388.84C619.94 388.84 621.48 388.84 621.68 388.84C623.4 388.84 623.86 389.3 623.86 390.77C623.86 392.25 623.65 392.71 621.68 392.79C621.29 392.78 620.13 392.76 619.74 392.75ZM633.36 383.55C636.97 383.55 637.35 382.24 637.35 379.81C637.35 377.37 636.55 376.11 633.36 376.11C633.16 376.11 631.58 376.11 631.38 376.11C628.06 376.11 627.43 377.41 627.43 379.81C627.43 382.2 628.15 383.55 631.43 383.55C631.81 383.55 632.97 383.55 633.36 383.55ZM631.43 381.78C629.62 381.78 629.24 381.23 629.24 379.81C629.24 378.38 629.58 377.91 631.43 377.91C631.62 377.91 633.17 377.91 633.36 377.91C635.08 377.91 635.55 378.38 635.55 379.85C635.55 381.32 635.55 381.78 633.36 381.82C632.97 381.81 631.81 381.79 631.43 381.78Z" id="iJYObD83W"></path><path d="M510.55 339.88L489.54 339.88L489.54 337.78L508.54 337.78L506.02 332.86L508.03 332.86L510.6 337.74L510.55 339.88Z" id="b3CtUg1dx2"></path><path d="M497.53 356.69C493.32 356.69 489.12 356.27 489.12 350.18C489.12 344.08 493.03 343.58 497.53 343.62C498.03 343.62 502.03 343.62 502.53 343.62C506.73 343.62 510.93 344.04 510.93 350.18C510.93 356.31 507.02 356.69 502.53 356.69C501.53 356.69 498.53 356.69 497.53 356.69ZM502.48 354.63C506.27 354.63 509 354.21 509 350.18C509 346.14 506.18 345.68 502.53 345.68C502.03 345.68 498.03 345.68 497.53 345.68C493.7 345.68 491.05 346.02 491.05 350.18C491.05 354.34 493.95 354.63 497.53 354.63C498.52 354.63 501.49 354.63 502.48 354.63Z" id="a4df5G3Rv"></path><path d="M497.53 373.5C493.32 373.5 489.12 373.04 489.12 366.99C489.12 360.94 493.03 360.39 497.53 360.39C498.03 360.39 502.03 360.39 502.53 360.39C506.73 360.39 510.93 360.85 510.93 366.99C510.93 373.12 507.02 373.5 502.53 373.5C501.53 373.5 498.53 373.5 497.53 373.5ZM502.48 371.44C506.27 371.44 509 371.02 509 366.99C509 362.95 506.18 362.49 502.53 362.49C502.03 362.49 498.03 362.49 497.53 362.49C493.7 362.49 491.05 362.78 491.05 366.99C491.05 371.19 493.95 371.44 497.53 371.44C498.52 371.44 501.49 371.44 502.48 371.44Z" id="b4z1MrEZ1u"></path><path d="M510.81 389.77L510.81 391.28L489.2 381.28L489.2 379.76L510.81 389.77ZM495.17 394.52C498.74 394.52 499.16 393.21 499.16 390.73C499.16 388.25 498.37 387.03 494.96 387.03C494.77 387.03 493.22 387.03 493.03 387.03C489.71 387.03 488.83 388.34 488.83 390.73C488.83 393.13 489.54 394.52 493.03 394.52C493.46 394.52 494.74 394.52 495.17 394.52ZM493.24 392.75C491.43 392.75 491.01 392.16 491.01 390.73C491.01 389.3 491.39 388.88 493.24 388.84C493.43 388.84 494.94 388.84 495.13 388.84C496.9 388.84 497.36 389.3 497.36 390.77C497.36 392.25 497.36 392.71 495.13 392.79C494.75 392.78 493.62 392.76 493.24 392.75ZM506.86 383.55C510.43 383.55 510.81 382.24 510.81 379.81C510.81 377.37 510.01 376.11 506.6 376.11C506.41 376.11 504.9 376.11 504.71 376.11C501.39 376.11 500.72 377.41 500.72 379.81C500.72 382.2 501.43 383.55 504.71 383.55C505.14 383.55 506.43 383.55 506.86 383.55ZM504.71 381.91C502.91 381.91 502.53 381.36 502.53 379.93C502.53 378.5 502.91 378.04 504.71 378.04C504.91 378.04 506.45 378.04 506.65 378.04C508.41 378.04 508.83 378.5 508.83 379.97C508.83 381.44 508.83 381.91 506.65 381.95C506.26 381.94 505.1 381.92 504.71 381.91Z" id="blm8iQMGO"></path><path d="M447.64 339.88L426.62 339.88L426.62 337.78L445.62 337.78L443.1 332.86L445.07 332.86L447.68 337.74L447.64 339.88Z" id="f109HU9iZa"></path><path d="M434.61 356.69C430.41 356.69 426.2 356.27 426.2 350.18C426.2 344.08 430.11 343.58 434.61 343.62C435.11 343.62 439.11 343.62 439.61 343.62C443.81 343.62 448.02 344.04 448.02 350.18C448.02 356.31 444.07 356.69 439.61 356.69C438.61 356.69 435.61 356.69 434.61 356.69ZM439.57 354.63C443.35 354.63 446.04 354.21 446.04 350.18C446.04 346.14 443.27 345.68 439.61 345.68C439.11 345.68 435.11 345.68 434.61 345.68C430.79 345.68 428.14 346.02 428.14 350.18C428.14 354.34 431.04 354.63 434.61 354.63C435.6 354.63 438.58 354.63 439.57 354.63Z" id="a2V6WAZrv"></path><path d="M434.61 373.5C430.41 373.5 426.2 373.04 426.2 366.99C426.2 360.94 430.11 360.39 434.61 360.39C435.11 360.39 439.11 360.39 439.61 360.39C443.81 360.39 448.02 360.85 448.02 366.99C448.02 373.12 444.07 373.5 439.61 373.5C438.61 373.5 435.61 373.5 434.61 373.5ZM439.57 371.44C443.35 371.44 446.04 371.02 446.04 366.99C446.04 362.95 443.27 362.49 439.61 362.49C439.11 362.49 435.11 362.49 434.61 362.49C430.79 362.49 428.14 362.78 428.14 366.99C428.14 371.19 431.04 371.44 434.61 371.44C435.6 371.44 438.58 371.44 439.57 371.44Z" id="aqqRoPpmz"></path><path d="M447.89 389.77L447.89 391.28L426.29 381.28L426.29 379.76L447.89 389.77ZM432.26 394.52C435.83 394.52 436.21 393.21 436.21 390.73C436.21 388.25 435.41 387.03 432 387.03C431.81 387.03 430.26 387.03 430.07 387.03C426.75 387.03 426.08 388.34 426.08 390.73C426.08 393.13 426.79 394.52 430.07 394.52C430.51 394.52 431.82 394.52 432.26 394.52ZM430.28 392.75C428.47 392.75 428.1 392.16 428.1 390.73C428.1 389.3 428.47 388.88 430.28 388.84C430.47 388.84 432.02 388.84 432.21 388.84C433.98 388.84 434.4 389.3 434.4 390.77C434.4 392.25 434.4 392.71 432.21 392.79C431.83 392.78 430.67 392.76 430.28 392.75ZM443.94 383.55C447.51 383.55 447.89 382.24 447.89 379.81C447.89 377.37 447.09 376.11 443.69 376.11C443.49 376.11 441.91 376.11 441.71 376.11C438.39 376.11 437.76 377.41 437.76 379.81C437.76 382.2 438.48 383.55 441.96 383.55C442.36 383.55 443.55 383.55 443.94 383.55ZM441.96 381.78C440.16 381.78 439.78 381.23 439.78 379.81C439.78 378.38 440.12 377.91 441.96 377.91C442.16 377.91 443.7 377.91 443.9 377.91C445.66 377.91 446.08 378.38 446.08 379.85C446.08 381.32 446.08 381.78 443.9 381.82C443.51 381.81 442.35 381.79 441.96 381.78Z" id="a4CRONKLvZ"></path><path d="M575.28 339.88L554.26 339.88L554.26 337.78L573.26 337.78L570.74 332.86L572.71 332.86L575.32 337.74L575.28 339.88Z" id="ccOtTnVPf"></path><path d="M562.25 356.69C558.05 356.69 553.84 356.27 553.84 350.18C553.84 344.08 557.75 343.58 562.25 343.62C562.75 343.62 566.75 343.62 567.25 343.62C571.45 343.62 575.66 344.04 575.66 350.18C575.66 356.31 571.7 356.69 567.25 356.69C566.25 356.69 563.25 356.69 562.25 356.69ZM567.21 354.63C570.99 354.63 573.68 354.21 573.68 350.18C573.68 346.14 570.91 345.68 567.25 345.68C566.75 345.68 562.75 345.68 562.25 345.68C558.42 345.68 555.78 346.02 555.78 350.18C555.78 354.34 558.68 354.63 562.25 354.63C563.24 354.63 566.22 354.63 567.21 354.63Z" id="a4xDohsmbG"></path><path d="M562.25 373.5C558.05 373.5 553.84 373.04 553.84 366.99C553.84 360.94 557.75 360.39 562.25 360.39C562.75 360.39 566.75 360.39 567.25 360.39C571.45 360.39 575.66 360.85 575.66 366.99C575.66 373.12 571.7 373.5 567.25 373.5C566.25 373.5 563.25 373.5 562.25 373.5ZM567.21 371.44C570.99 371.44 573.68 371.02 573.68 366.99C573.68 362.95 570.91 362.49 567.25 362.49C566.75 362.49 562.75 362.49 562.25 362.49C558.42 362.49 555.78 362.78 555.78 366.99C555.78 371.19 558.68 371.44 562.25 371.44C563.24 371.44 566.22 371.44 567.21 371.44Z" id="c1U0Jh2Zxe"></path><path d="M575.53 389.77L575.53 391.28L553.93 381.28L553.93 379.76L575.53 389.77ZM559.89 394.52C563.47 394.52 563.85 393.21 563.85 390.73C563.85 388.25 563.05 387.03 559.64 387.03C559.45 387.03 557.9 387.03 557.71 387.03C554.39 387.03 553.72 388.34 553.72 390.73C553.72 393.13 554.43 394.52 557.71 394.52C558.15 394.52 559.46 394.52 559.89 394.52ZM557.92 392.75C556.11 392.75 555.73 392.16 555.73 390.73C555.73 389.3 556.11 388.88 557.92 388.84C558.11 388.84 559.66 388.84 559.85 388.84C561.62 388.84 562.04 389.3 562.04 390.77C562.04 392.25 562.04 392.71 559.85 392.79C559.47 392.78 558.31 392.76 557.92 392.75ZM571.58 383.55C575.15 383.55 575.53 382.24 575.53 379.81C575.53 377.37 574.73 376.11 571.33 376.11C571.13 376.11 569.55 376.11 569.35 376.11C566.03 376.11 565.4 377.41 565.4 379.81C565.4 382.2 566.12 383.55 569.6 383.55C570 383.55 571.18 383.55 571.58 383.55ZM569.6 381.78C567.8 381.78 567.42 381.23 567.42 379.81C567.42 378.38 567.75 377.91 569.6 377.91C569.8 377.91 571.34 377.91 571.54 377.91C573.3 377.91 573.72 378.38 573.72 379.85C573.72 381.32 573.72 381.78 571.54 381.82C571.15 381.81 569.99 381.79 569.6 381.78Z" id="a2bc44BdGA"></path></defs><g><g><g><use xlink:href="#dBTtRRdYM" opacity="1" fill="#6d6e70" fill-opacity="1"></use><g><use xlink:href="#dBTtRRdYM" opacity="1" fill-opacity="0" stroke="#000000" stroke-width="1" stroke-opacity="0"></use></g></g><g><use xlink:href="#bKLZCGb5M" opacity="1" fill="#6d6e70" fill-opacity="1"></use><g><use xlink:href="#bKLZCGb5M" opacity="1" fill-opacity="0" stroke="#000000" stroke-width="1" stroke-opacity="0"></use></g></g><g><use xlink:href="#bZpNAVdIu" opacity="1" fill="#ffffff" fill-opacity="1"></use><g><use xlink:href="#bZpNAVdIu" opacity="1" fill-opacity="0" stroke="#000000" stroke-width="1" stroke-opacity="0"></use></g></g><g><use xlink:href="#b2e6jI8mwb" opacity="1" fill="#ffffff" fill-opacity="1"></use><g><use xlink:href="#b2e6jI8mwb" opacity="1" fill-opacity="0" stroke="#000000" stroke-width="1" stroke-opacity="0"></use></g></g><g><use xlink:href="#i19ZKqdRFg" opacity="1" fill="#ffffff" fill-opacity="1"></use><g><use xlink:href="#i19ZKqdRFg" opacity="1" fill-opacity="0" stroke="#000000" stroke-width="1" stroke-opacity="0"></use></g></g><g><use xlink:href="#e1vqX8bc3H" opacity="1" fill="#ffffff" fill-opacity="1"></use><g><use xlink:href="#e1vqX8bc3H" opacity="1" fill-opacity="0" stroke="#000000" stroke-width="1" stroke-opacity="0"></use></g></g><g><use xlink:href="#at4jL5aO" opacity="1" fill="#ffffff" fill-opacity="1"></use><g><use xlink:href="#at4jL5aO" opacity="1" fill-opacity="0" stroke="#000000" stroke-width="1" stroke-opacity="0"></use></g></g><g><use xlink:href="#aB3UtaXB" opacity="1" fill="#ffffff" fill-opacity="1"></use><g><use xlink:href="#aB3UtaXB" opacity="1" fill-opacity="0" stroke="#000000" stroke-width="1" stroke-opacity="0"></use></g></g><g><use xlink:href="#bm0g0rfgT" opacity="1" fill="#ffffff" fill-opacity="1"></use><g><use xlink:href="#bm0g0rfgT" opacity="1" fill-opacity="0" stroke="#000000" stroke-width="1" stroke-opacity="0"></use></g></g><g><use xlink:href="#e11udEjuRD" opacity="1" fill="#ffffff" fill-opacity="1"></use><g><use xlink:href="#e11udEjuRD" opacity="1" fill-opacity="0" stroke="#000000" stroke-width="1" stroke-opacity="0"></use></g></g><g><use xlink:href="#e2RbO0N5vx" opacity="1" fill="#ffffff" fill-opacity="1"></use><g><use xlink:href="#e2RbO0N5vx" opacity="1" fill-opacity="0" stroke="#000000" stroke-width="1" stroke-opacity="0"></use></g></g><g><use xlink:href="#busalXUTL" opacity="1" fill="#ffffff" fill-opacity="1"></use><g><use xlink:href="#busalXUTL" opacity="1" fill-opacity="0" stroke="#000000" stroke-width="1" stroke-opacity="0"></use></g></g><g><use xlink:href="#dxkTMVUru" opacity="1" fill="#ffffff" fill-opacity="1"></use><g><use xlink:href="#dxkTMVUru" opacity="1" fill-opacity="0" stroke="#000000" stroke-width="1" stroke-opacity="0"></use></g></g><g><use xlink:href="#b3xncewCNK" opacity="1" fill="#ffffff" fill-opacity="1"></use><g><use xlink:href="#b3xncewCNK" opacity="1" fill-opacity="0" stroke="#000000" stroke-width="1" stroke-opacity="0"></use></g></g><g><use xlink:href="#a5FVg1ojkY" opacity="1" fill="#ffffff" fill-opacity="1"></use><g><use xlink:href="#a5FVg1ojkY" opacity="1" fill-opacity="0" stroke="#000000" stroke-width="1" stroke-opacity="0"></use></g></g><g><use xlink:href="#bd6kWOLKU" opacity="1" fill="#ffffff" fill-opacity="1"></use><g><use xlink:href="#bd6kWOLKU" opacity="1" fill-opacity="0" stroke="#000000" stroke-width="1" stroke-opacity="0"></use></g></g><g><use xlink:href="#b2csRZ61Ev" opacity="1" fill="#ffffff" fill-opacity="1"></use><g><use xlink:href="#b2csRZ61Ev" opacity="1" fill-opacity="0" stroke="#000000" stroke-width="1" stroke-opacity="0"></use></g></g><g><use xlink:href="#b2T9iXp2ry" opacity="1" fill="#ffffff" fill-opacity="1"></use><g><use xlink:href="#b2T9iXp2ry" opacity="1" fill-opacity="0" stroke="#000000" stroke-width="1" stroke-opacity="0"></use></g></g><g><use xlink:href="#b6flKgQ2JD" opacity="1" fill="#ffffff" fill-opacity="1"></use><g><use xlink:href="#b6flKgQ2JD" opacity="1" fill-opacity="0" stroke="#000000" stroke-width="1" stroke-opacity="0"></use></g></g><g><use xlink:href="#c5F8r8CCK" opacity="1" fill="#ffffff" fill-opacity="1"></use><g><use xlink:href="#c5F8r8CCK" opacity="1" fill-opacity="0" stroke="#000000" stroke-width="1" stroke-opacity="0"></use></g></g><g><use xlink:href="#aVqlG4xqM" opacity="1" fill="#ffffff" fill-opacity="1"></use><g><use xlink:href="#aVqlG4xqM" opacity="1" fill-opacity="0" stroke="#000000" stroke-width="1" stroke-opacity="0"></use></g></g><g><use xlink:href="#e327TSmoqN" opacity="1" fill="#ffffff" fill-opacity="1"></use><g><use xlink:href="#e327TSmoqN" opacity="1" fill-opacity="0" stroke="#000000" stroke-width="1" stroke-opacity="0"></use></g></g><g><use xlink:href="#c1eZTu1bg8" opacity="1" fill="#ffffff" fill-opacity="1"></use><g><use xlink:href="#c1eZTu1bg8" opacity="1" fill-opacity="0" stroke="#000000" stroke-width="1" stroke-opacity="0"></use></g></g><g><use xlink:href="#e1N8VDT2d" opacity="1" fill="#ffffff" fill-opacity="1"></use><g><use xlink:href="#e1N8VDT2d" opacity="1" fill-opacity="0" stroke="#000000" stroke-width="1" stroke-opacity="0"></use></g></g><g><use xlink:href="#bJGTbn5OZ" opacity="1" fill="#ffffff" fill-opacity="1"></use><g><use xlink:href="#bJGTbn5OZ" opacity="1" fill-opacity="0" stroke="#000000" stroke-width="1" stroke-opacity="0"></use></g></g><g><use xlink:href="#b1HXwzMOzR" opacity="1" fill="#ffffff" fill-opacity="1"></use><g><use xlink:href="#b1HXwzMOzR" opacity="1" fill-opacity="0" stroke="#000000" stroke-width="1" stroke-opacity="0"></use></g></g><g><use xlink:href="#a5GeLn3z1c" opacity="1" fill="#ffffff" fill-opacity="1"></use><g><use xlink:href="#a5GeLn3z1c" opacity="1" fill-opacity="0" stroke="#000000" stroke-width="1" stroke-opacity="0"></use></g></g><g><use xlink:href="#i8aBSIQOb1" opacity="1" fill="#ffffff" fill-opacity="1"></use><g><use xlink:href="#i8aBSIQOb1" opacity="1" fill-opacity="0" stroke="#000000" stroke-width="1" stroke-opacity="0"></use></g></g><g><use xlink:href="#d1uG3brdNe" opacity="1" fill="#ffffff" fill-opacity="1"></use><g><use xlink:href="#d1uG3brdNe" opacity="1" fill-opacity="0" stroke="#000000" stroke-width="1" stroke-opacity="0"></use></g></g><g><use xlink:href="#c5RgRGEaJF" opacity="1" fill="#ffffff" fill-opacity="1"></use><g><use xlink:href="#c5RgRGEaJF" opacity="1" fill-opacity="0" stroke="#000000" stroke-width="1" stroke-opacity="0"></use></g></g><g><use xlink:href="#a1lvuhrCZX" opacity="1" fill="#ffffff" fill-opacity="1"></use><g><use xlink:href="#a1lvuhrCZX" opacity="1" fill-opacity="0" stroke="#000000" stroke-width="1" stroke-opacity="0"></use></g></g><g><use xlink:href="#bn5fuwiN" opacity="1" fill="#ffffff" fill-opacity="1"></use><g><use xlink:href="#bn5fuwiN" opacity="1" fill-opacity="0" stroke="#000000" stroke-width="1" stroke-opacity="0"></use></g></g><g><use xlink:href="#d6HyDVb3JU" opacity="1" fill="#ffffff" fill-opacity="1"></use><g><use xlink:href="#d6HyDVb3JU" opacity="1" fill-opacity="0" stroke="#000000" stroke-width="1" stroke-opacity="0"></use></g></g><g><use xlink:href="#bU8b6IPWa" opacity="1" fill="#ffffff" fill-opacity="1"></use><g><use xlink:href="#bU8b6IPWa" opacity="1" fill-opacity="0" stroke="#000000" stroke-width="1" stroke-opacity="0"></use></g></g><g><use xlink:href="#bMR5GP0am" opacity="1" fill="#ffffff" fill-opacity="1"></use><g><use xlink:href="#bMR5GP0am" opacity="1" fill-opacity="0" stroke="#000000" stroke-width="1" stroke-opacity="0"></use></g></g><g><use xlink:href="#a1bqDcN9U1" opacity="1" fill="#ffffff" fill-opacity="1"></use><g><use xlink:href="#a1bqDcN9U1" opacity="1" fill-opacity="0" stroke="#000000" stroke-width="1" stroke-opacity="0"></use></g></g><g><use xlink:href="#bZPh8d3qn" opacity="1" fill="#ffffff" fill-opacity="1"></use><g><use xlink:href="#bZPh8d3qn" opacity="1" fill-opacity="0" stroke="#000000" stroke-width="1" stroke-opacity="0"></use></g></g><g><use xlink:href="#duyKIeSzM" opacity="1" fill="#ffffff" fill-opacity="1"></use><g><use xlink:href="#duyKIeSzM" opacity="1" fill-opacity="0" stroke="#000000" stroke-width="1" stroke-opacity="0"></use></g></g><g><use xlink:href="#g8hkLhoJU" opacity="1" fill="#ffffff" fill-opacity="1"></use><g><use xlink:href="#g8hkLhoJU" opacity="1" fill-opacity="0" stroke="#000000" stroke-width="1" stroke-opacity="0"></use></g></g><g><use xlink:href="#d1eLZwXz3M" opacity="1" fill="#ffffff" fill-opacity="1"></use><g><use xlink:href="#d1eLZwXz3M" opacity="1" fill-opacity="0" stroke="#000000" stroke-width="1" stroke-opacity="0"></use></g></g><g><use xlink:href="#a1QNkNAA" opacity="1" fill="#ffffff" fill-opacity="1"></use><g><use xlink:href="#a1QNkNAA" opacity="1" fill-opacity="0" stroke="#000000" stroke-width="1" stroke-opacity="0"></use></g></g><g><use xlink:href="#f6NIHmvvLW" opacity="1" fill="#ffffff" fill-opacity="1"></use><g><use xlink:href="#f6NIHmvvLW" opacity="1" fill-opacity="0" stroke="#000000" stroke-width="1" stroke-opacity="0"></use></g></g><g><use xlink:href="#cVH7AqJsU" opacity="1" fill="#ffffff" fill-opacity="1"></use><g><use xlink:href="#cVH7AqJsU" opacity="1" fill-opacity="0" stroke="#000000" stroke-width="1" stroke-opacity="0"></use></g></g><g><use xlink:href="#aSrGCtnKn" opacity="1" fill="#ffffff" fill-opacity="1"></use><g><use xlink:href="#aSrGCtnKn" opacity="1" fill-opacity="0" stroke="#000000" stroke-width="1" stroke-opacity="0"></use></g></g><g><use xlink:href="#b2toG4CpE8" opacity="1" fill="url(#gradientboLZvgHu8)"></use><g><use xlink:href="#b2toG4CpE8" opacity="1" fill-opacity="0" stroke="#000000" stroke-width="1" stroke-opacity="0"></use></g></g><g><use xlink:href="#blkYDbJhc" opacity="1" fill="#6d6e70" fill-opacity="1"></use><g><use xlink:href="#blkYDbJhc" opacity="1" fill-opacity="0" stroke="#000000" stroke-width="1" stroke-opacity="0"></use></g></g><g><use xlink:href="#e5YEFI5jz" opacity="1" fill="#ffffff" fill-opacity="1"></use><g><use xlink:href="#e5YEFI5jz" opacity="1" fill-opacity="0" stroke="#000000" stroke-width="1" stroke-opacity="0"></use></g></g><g><use xlink:href="#g2xFo2w7Qw" opacity="1" fill="#ffffff" fill-opacity="1"></use><g><use xlink:href="#g2xFo2w7Qw" opacity="1" fill-opacity="0" stroke="#000000" stroke-width="1" stroke-opacity="0"></use></g></g><g><use xlink:href="#c1WjBSkCld" opacity="1" fill="#ffffff" fill-opacity="1"></use><g><use xlink:href="#c1WjBSkCld" opacity="1" fill-opacity="0" stroke="#000000" stroke-width="1" stroke-opacity="0"></use></g></g><g><use xlink:href="#iJYObD83W" opacity="1" fill="#ffffff" fill-opacity="1"></use><g><use xlink:href="#iJYObD83W" opacity="1" fill-opacity="0" stroke="#000000" stroke-width="1" stroke-opacity="0"></use></g></g><g><use xlink:href="#b3CtUg1dx2" opacity="1" fill="#ffffff" fill-opacity="1"></use><g><use xlink:href="#b3CtUg1dx2" opacity="1" fill-opacity="0" stroke="#000000" stroke-width="1" stroke-opacity="0"></use></g></g><g><use xlink:href="#a4df5G3Rv" opacity="1" fill="#ffffff" fill-opacity="1"></use><g><use xlink:href="#a4df5G3Rv" opacity="1" fill-opacity="0" stroke="#000000" stroke-width="1" stroke-opacity="0"></use></g></g><g><use xlink:href="#b4z1MrEZ1u" opacity="1" fill="#ffffff" fill-opacity="1"></use><g><use xlink:href="#b4z1MrEZ1u" opacity="1" fill-opacity="0" stroke="#000000" stroke-width="1" stroke-opacity="0"></use></g></g><g><use xlink:href="#blm8iQMGO" opacity="1" fill="#ffffff" fill-opacity="1"></use><g><use xlink:href="#blm8iQMGO" opacity="1" fill-opacity="0" stroke="#000000" stroke-width="1" stroke-opacity="0"></use></g></g><g><use xlink:href="#f109HU9iZa" opacity="1" fill="#ffffff" fill-opacity="1"></use><g><use xlink:href="#f109HU9iZa" opacity="1" fill-opacity="0" stroke="#000000" stroke-width="1" stroke-opacity="0"></use></g></g><g><use xlink:href="#a2V6WAZrv" opacity="1" fill="#ffffff" fill-opacity="1"></use><g><use xlink:href="#a2V6WAZrv" opacity="1" fill-opacity="0" stroke="#000000" stroke-width="1" stroke-opacity="0"></use></g></g><g><use xlink:href="#aqqRoPpmz" opacity="1" fill="#ffffff" fill-opacity="1"></use><g><use xlink:href="#aqqRoPpmz" opacity="1" fill-opacity="0" stroke="#000000" stroke-width="1" stroke-opacity="0"></use></g></g><g><use xlink:href="#a4CRONKLvZ" opacity="1" fill="#ffffff" fill-opacity="1"></use><g><use xlink:href="#a4CRONKLvZ" opacity="1" fill-opacity="0" stroke="#000000" stroke-width="1" stroke-opacity="0"></use></g></g><g><use xlink:href="#ccOtTnVPf" opacity="1" fill="#ffffff" fill-opacity="1"></use><g><use xlink:href="#ccOtTnVPf" opacity="1" fill-opacity="0" stroke="#000000" stroke-width="1" stroke-opacity="0"></use></g></g><g><use xlink:href="#a4xDohsmbG" opacity="1" fill="#ffffff" fill-opacity="1"></use><g><use xlink:href="#a4xDohsmbG" opacity="1" fill-opacity="0" stroke="#000000" stroke-width="1" stroke-opacity="0"></use></g></g><g><use xlink:href="#c1U0Jh2Zxe" opacity="1" fill="#ffffff" fill-opacity="1"></use><g><use xlink:href="#c1U0Jh2Zxe" opacity="1" fill-opacity="0" stroke="#000000" stroke-width="1" stroke-opacity="0"></use></g></g><g><use xlink:href="#a2bc44BdGA" opacity="1" fill="#ffffff" fill-opacity="1"></use><g><use xlink:href="#a2bc44BdGA" opacity="1" fill-opacity="0" stroke="#000000" stroke-width="1" stroke-opacity="0"></use></g></g></g></g></svg>